
<svg width="39px" height="19px" viewBox="73 53 39 19" version="1.1" xmlns="http://www.w3.org/2000/svg" xmlns:xlink="http://www.w3.org/1999/xlink">
    <!-- Generator: Sketch 41.2 (35397) - http://www.bohemiancoding.com/sketch -->
    <defs></defs>
    <path d="M85.916,71.504 C87.752,71.504 91.172,68.264 92.252,65.456 L91.46,64.988 C90.524,66.392 89.336,67.508 87.86,68.048 L87.752,68.048 L85.844,61.424 C86.312,60.74 86.852,60.02 87.104,59.696 C88.436,57.896 89.156,56.996 89.804,56.996 C90.596,56.996 90.632,58.328 90.236,59.516 L91.316,59.516 C92.684,58.724 93.908,57.068 93.908,55.412 C93.908,53.9 93.044,53.072 91.712,53.072 C90.308,53.036 88.94,54.224 87.392,56.636 L85.376,59.804 L84.548,56.852 C83.756,54.116 82.82,53.108 80.912,53.108 C78.068,53.108 75.908,56.168 75.944,60.992 L77.096,60.992 C77.42,57.788 78.5,56.708 79.256,56.708 C79.904,56.708 80.192,57.356 80.66,58.904 L81.812,62.9 L80.948,64.196 C78.5,67.796 77.708,68.156 75.764,67.148 L74.54,66.572 C74.54,66.572 73.244,67.508 73.244,69.164 C73.244,70.784 74.468,71.612 75.656,71.612 C77.636,71.612 78.896,69.992 81.056,66.536 L82.316,64.556 L83.756,69.488 C84.224,71.036 84.728,71.504 85.916,71.504 Z M101.8625,56.888 C101.7545,53.936 100.5665,53.108 98.8745,53.108 C97.5425,53.108 95.9945,53.792 94.3385,55.484 L94.1945,56.42 C94.6265,56.276 95.3825,56.132 95.8145,56.132 C96.4625,56.132 97.0745,56.348 97.4705,56.708 L98.2625,70.784 L100.2065,71.504 L100.5305,71.504 L103.2305,68.552 C107.4785,63.872 111.4025,60.236 111.4025,56.204 C111.4025,54.296 110.2505,53.108 108.4865,53.108 C107.0825,53.108 105.4625,53.864 103.8425,55.484 L103.6985,56.384 C104.2385,56.24 104.9225,56.096 105.5345,56.096 C106.8305,56.096 107.8385,56.816 107.8025,58.364 C107.8025,60.956 105.7505,63.908 102.2585,67.58 L101.8625,56.888 Z" id="xv" stroke="none" fill="#000000" fill-rule="evenodd"></path>
</svg>
